<svg xmlns="http://www.w3.org/2000/svg"  class="h-[26px] w-auto" width="46" height="37" viewBox="0 0 186 37" fill="currentColor"><path d="M36.523 12.303C24.585 19.24 12.647 5.353.71 12.082c-.128.072-.281-.026-.281-.18V2.18c0-.075.038-.145.1-.18 11.938-6.939 23.877 6.95 35.814.22.128-.072.281.026.281.18v9.723a.208.208 0 0 1-.1.18Z"></path><path d="M36.095 25.49C24.158 32.427 12.22 18.54.281 25.267.153 25.341 0 25.243 0 25.09v-9.723c0-.075.038-.144.1-.18 11.938-6.939 23.877 6.95 35.814.221.128-.072.281.026.281.18v9.722a.208.208 0 0 1-.1.18ZM.428 28.65v8.115c0 .181.205.272.325.144l9.608-10.275s-2.743-.4-5.635.2C2.244 27.35.856 28.238.513 28.48a.211.211 0 0 0-.085.171ZM53.791 7.967c3.412 0 5.711 1.903 6.453 5.182H56.51c-.396-1.243-1.31-2.036-2.745-2.036-1.928 0-3.213 1.56-3.213 4.415 0 2.856 1.285 4.389 3.213 4.389 1.435 0 2.324-.687 2.745-2.01h3.733c-.742 3.12-3.041 5.183-6.453 5.183-3.956 0-6.774-2.962-6.774-7.562s2.818-7.561 6.774-7.561ZM69.036 23.09c-3.956 0-6.947-2.962-6.947-7.562 0-4.627 3.09-7.561 7.046-7.561 3.955 0 7.045 2.934 7.045 7.561 0 4.6-3.164 7.562-7.144 7.562Zm0-3.226c1.83 0 3.584-1.428 3.584-4.336 0-2.934-1.705-4.336-3.535-4.336S65.6 12.594 65.6 15.528c0 2.908 1.582 4.336 3.437 4.336ZM96.511 14.761c0-2.326-.964-3.543-2.793-3.543-1.854 0-2.818 1.217-2.818 3.543v8.09h-3.462v-8.09c0-2.326-.964-3.543-2.793-3.543-1.879 0-2.843 1.217-2.843 3.543v8.09H78.34V8.205h3.46v1.772c.866-1.216 2.077-1.983 3.783-1.983 2.126 0 3.634.978 4.574 2.802.89-1.665 2.447-2.802 4.45-2.802 3.288 0 5.365 2.22 5.365 6.266v8.593H96.51v-8.09ZM120.715 14.761c0-2.326-.964-3.543-2.793-3.543-1.854 0-2.818 1.217-2.818 3.543v8.09h-3.461v-8.09c0-2.326-.965-3.543-2.794-3.543-1.879 0-2.844 1.217-2.844 3.543v8.09h-3.461V8.205h3.461v1.772c.866-1.216 2.077-1.983 3.783-1.983 2.126 0 3.634.978 4.574 2.802.89-1.665 2.447-2.802 4.45-2.802 3.288 0 5.365 2.22 5.365 6.266v8.593h-3.462v-8.09ZM138.896 22.788h-3.486v-1.851c-.866 1.243-2.127 2.036-3.832 2.036-3.19 0-5.241-2.221-5.241-6.24V8.141h3.461v8.063c0 2.354.963 3.623 2.793 3.623 1.879 0 2.819-1.27 2.819-3.623V8.141h3.486v14.647ZM150.564 14.691c0-2.353-.964-3.622-2.793-3.622-1.879 0-2.843 1.27-2.843 3.622v8.09h-3.461V8.135h3.461V9.96c.89-1.243 2.126-2.036 3.881-2.036 3.189 0 5.217 2.22 5.217 6.266v8.593h-3.462v-8.09ZM156.236 3.425c0-1.216.89-2.168 2.126-2.168 1.212 0 2.127.952 2.127 2.168 0 1.216-.915 2.168-2.127 2.168-1.236 0-2.126-.952-2.126-2.168Zm.371 4.706h3.461v14.647h-3.461V8.131ZM163.859 11.171h-1.632v-3.04h1.632V4.509h3.486V8.13h1.337l1.234 3.04h-2.571v7.086c0 .978.371 1.401 1.459 1.401h1.112v3.12h-1.681c-2.621 0-4.376-1.19-4.376-4.547v-7.06ZM181.744 8.13h3.684l-8.48 21.575h-3.684l2.967-7.297-5.488-14.277h3.881l3.536 10.232 3.584-10.232Z"></path></svg>