<svg xmlns="http://www.w3.org/2000/svg"  class="h-[22px]" width="20" height="20" viewBox="0 0 71 34"><path fill="currentColor" d="M8.262 3.03v9.355s3.318 0 5.093-.134c1.396-.243 1.653-.377 1.91-1.764l.514-2.032h1.519l-.257 4.44.134 4.55h-1.53l-.38-1.776c-.379-1.265-.893-1.521-1.91-1.643-1.272-.134-5.093-.134-5.093-.134v7.846c0 1.509.771 2.154 2.547 2.154h5.35c1.653 0 3.304-.134 4.334-2.53l1.383-3.042h1.285c-.134.633-.77 6.204-.893 7.457 0 0-4.836-.121-6.868-.121H6.23l-5.472.121v-1.375l1.775-.39c1.285-.254 1.664-.631 1.664-1.642 0 0 .135-3.418.135-9.112 0-5.68-.135-9.099-.135-9.099 0-1.132-.379-1.387-1.664-1.643L.758 2.143V.755l5.35.11h10.185c2.033 0 5.46-.365 5.46-.365s-.123 2.14-.257 7.201h-1.397l-.514-1.776c-.501-2.275-1.261-3.407-2.668-3.407H8.91c-.649.001-.649.123-.649.512Zm20.616.998h1.53v5.316l5.228-.255-.257 2.408-5.092-.389v9.367c0 2.652.893 3.673 2.424 3.673 1.383 0 2.411-.766 2.79-1.398l.759.888c-.758 1.764-2.913 2.651-4.958 2.651-2.534 0-4.591-1.509-4.591-4.416V11.24h-3.037V9.977c2.548-.255 4.445-1.776 5.204-5.948ZM39.834 20.34l1.016 2.409c.379 1.009 1.272 2.032 3.305 2.032 2.167 0 3.06-1.143 3.06-2.53 0-4.307-8.532-3.042-8.532-8.857 0-3.284 2.668-4.818 6.108-4.818 1.53 0 3.82.256 4.97.766-.257 1.265-.391 2.907-.391 4.173l-1.262.122-.893-2.53c-.257-.62-1.285-1.132-2.546-1.132-1.531 0-3.06.632-3.06 2.274 0 3.918 8.789 3.041 8.789 8.857 0 3.296-2.926 5.06-6.5 5.06-2.669 0-5.35-1.021-5.35-1.021.257-1.509.135-3.15 0-4.805h1.286Zm9.929 12.14c.38-1.387.636-3.15.893-4.805l1.396-.121.514 2.651c.123.632.502 1.143 1.519 1.143 1.653 0 3.82-1.009 5.864-4.55-.906-2.153-3.575-9.099-5.999-14.415-.636-1.398-.758-1.52-1.64-1.776l-.65-.243V9.087l3.832.134 4.701-.255v1.266l-1.15.255c-.893.121-1.262.62-1.262 1.132 0 .134 0 .255.123.51.244.767 2.289 6.448 3.82 10.243 1.261-2.652 3.686-8.6 4.065-9.61.135-.511.257-.632.257-1.01 0-.644-.38-1.02-1.262-1.264l-.905-.256V8.966l3.574.122 3.305-.122v1.264l-.636.499c-1.273.51-1.408.632-1.91 1.653L62.616 25.4C59.3 32.868 55.86 33.5 53.447 33.5c-1.53.002-2.68-.388-3.684-1.02Z"></path></svg>