<svg xmlns="http://www.w3.org/2000/svg" aria-label="Kick" enable-background="new 0 0 77.4 26.1"  class="h-[20px]" width="22" height="27" viewBox="0 0 77.4 26.1"><path fill="currentColor" fill-rule="evenodd" d="M0 0h8.3v5.7H11V2.9h2.8V0H22v8.6h-2.8v2.9h-2.8v2.9h2.8v2.9H22v8.6h-8.3V23H11v-3H8.3v5.7H0zm55.1 0h8.3v5.7h2.8V2.9H69V0h8.3v8.6h-2.8v2.9h-2.8v2.9h2.8v2.9h2.8v8.6H69V23h-2.8v-3h-2.8v5.7h-8.3zM24.8 0h8.3v25.7h-8.3zm19.3 0h-5.5v2.9h-2.8v20h2.8v2.9h13.8v-8.6h-8.3V8.6h8.3V0z" clip-rule="evenodd"></path></svg>