<svg xmlns="http://www.w3.org/2000/svg" class="h-[21px] w-auto" width="40" height="30" fill="none" viewBox="0 0 200 30">
<g fill="currentColor"><path d="m26.002 18.134-4.246 4.552a.983.983 0 0 1-.718.314H.913a.493.493 0 0 1-.362-.83l4.24-4.551a.982.982 0 0 1 .72-.314h20.124a.491.491 0 0 1 .367.829Zm-4.246-9.17a.991.991 0 0 0-.718-.313H.913a.493.493 0 0 0-.362.829l4.24 4.554a.993.993 0 0 0 .72.314h20.124a.494.494 0 0 0 .36-.829l-4.239-4.554ZM.913 5.695h20.125a.982.982 0 0 0 .718-.313L26.002.829a.491.491 0 0 0-.367-.83H5.51a.982.982 0 0 0-.718.314L.55 4.866a.494.494 0 0 0 .362.829ZM50.538 9.727H39.77V6.18h13.565V2.635H39.735a3.538 3.538 0 0 0-3.558 3.52v3.593a3.538 3.538 0 0 0 3.558 3.525h10.781v3.546H36.433v3.545h14.105a3.537 3.537 0 0 0 3.557-3.52v-3.593a3.538 3.538 0 0 0-3.557-3.524ZM71.396 2.635H60.588a3.539 3.539 0 0 0-3.567 3.52v10.69a3.532 3.532 0 0 0 1.053 2.5 3.538 3.538 0 0 0 2.514 1.019h10.808a3.537 3.537 0 0 0 3.558-3.52V6.155a3.536 3.536 0 0 0-3.558-3.52Zm-.027 14.183H60.614V6.181h10.75l.005 10.637ZM109.25 2.635H98.708a3.538 3.538 0 0 0-3.558 3.52v14.21h3.594V14.54h10.494v5.824h3.594V6.154a3.545 3.545 0 0 0-3.582-3.52Zm-.026 8.36H98.73V6.18h10.494v4.813ZM151.213 2.635h-10.542a3.537 3.537 0 0 0-3.557 3.52v14.21h3.593V14.54h10.47v5.824h3.594V6.154a3.551 3.551 0 0 0-1.05-2.496 3.548 3.548 0 0 0-2.508-1.023Zm-.036 8.36h-10.494V6.18h10.494v4.813ZM130.333 16.819h-1.437L123.757 4.12a2.376 2.376 0 0 0-2.195-1.486h-3.189a2.36 2.36 0 0 0-2.372 2.348v15.381h3.594V6.181h1.437l5.137 12.698a2.38 2.38 0 0 0 2.204 1.476h3.189a2.36 2.36 0 0 0 2.372-2.348V2.635h-3.601V16.82ZM81.722 2.635h-3.594v14.21a3.535 3.535 0 0 0 2.21 3.26 3.54 3.54 0 0 0 1.36.26h10.781v-3.546H81.722V2.635Z"></path></g>
<defs><clipPath id="clip0_1028_3403"><path fill="#fff" d="M0 0h154.771v23H0z"></path></clipPath></defs>
</svg>